<svg xmlns="http://www.w3.org/2000/svg" width="640" height="400" viewBox="0 0 640 400" fill="none">
  <rect x="40" y="40" width="360" height="320" rx="16" fill="none" stroke="#d4dce8" stroke-width="2"/>
  <polyline points="72,280 120,240 168,250 216,200 264,220 312,170 360,190" fill="none" stroke="#1b55e0" stroke-width="3" stroke-linecap="round" stroke-linejoin="round"/>
  <rect x="72" y="300" width="288" height="4" rx="2" fill="none"/>
  <rect x="420" y="40" width="180" height="320" rx="16" fill="none" stroke="#c5d4f5" stroke-width="1.5"/>
  <circle cx="460" cy="100" r="24" fill="#1b55e0" opacity="0.15"/>
  <path d="M448 100 L460 88 L472 100 L460 112 Z" fill="#1b55e0"/>
  <rect x="444" y="140" width="132" height="10" rx="5" fill="#c5d4f5"/>
  <rect x="444" y="162" width="100" height="8" rx="4" fill="#d4dce8"/>
  <rect x="444" y="200" width="132" height="32" rx="8" fill="#1b55e0"/>
  <text x="510" y="221" text-anchor="middle" font-family="system-ui,sans-serif" font-size="12" font-weight="700" fill="#fff">Rate alert</text>
  <rect x="444" y="248" width="132" height="32" rx="8" fill="#f0b84c"/>
  <text x="510" y="269" text-anchor="middle" font-family="system-ui,sans-serif" font-size="12" font-weight="700" fill="#0a0f2e">Market buy</text>
  <rect x="444" y="296" width="132" height="32" rx="8" fill="none" stroke="#1b55e0" stroke-width="1.5"/>
  <text x="510" y="317" text-anchor="middle" font-family="system-ui,sans-serif" font-size="12" font-weight="700" fill="#1b55e0">Limit order</text>
</svg>
